/* XPM */
static char *dummy[]={
"32 34 19 1",
". c None",
"# c #000000",
"q c #005800",
"p c #007800",
"e c #333333",
"k c #472300",
"f c #4d4d4d",
"j c #633500",
"o c #8a163d",
"i c #999999",
"g c #9c9c9c",
"l c #a3b3c4",
"b c #b01c37",
"h c #bfbfbf",
"d c #c4e0eb",
"m c #d5b571",
"a c #ff2832",
"n c #fff388",
"c c #ffffff",
"................................",
"................................",
"................#...............",
"...............#a#..............",
"..............#ab#..............",
".............#cbcd#.............",
"............#cccccd#............",
"............#edccde#............",
"............#feccef#............",
"............#dceecd#...##.......",
".............#dccd#...#g#.......",
".............#deed##.#hg#.......",
"............#bebbeba##hg#.......",
"...........#aaaaabab##hg#.......",
".........###aaaabbb#d#hg#.......",
"........#hih#abb####c#hg#.......",
".......#ijkji###d#dcl#hg#.......",
"......#hkfkfkh#d####l#hg#.......",
"......#hkjkjkh#c#dcl#mhg#.......",
"......#hkfkfkh#c#####nnnm#......",
".......#ijkji##c#dc#bo##m#......",
"........#hih#ld#d###o#cd#.......",
".........####cccccc#b###........",
".........#ob###dd###o#..........",
".........#bb#dc##cd##...........",
"..........#b#cd##dc#............",
"...........####..#c#............",
"............#ba#.#d#............",
"............###..###............",
"...........#pq#..#qp#...........",
"..........#pqq#..#qqp#..........",
"...........####..####...........",
"................................",
"................................"};
