/* XPM */
static char * cha_xpm[] = {
"32 32 25 1",
" 	c #2E2E2E",
".	c #444444",
"+	c #5E5E5E",
"@	c #000000",
"#	c #4C4C4C",
"$	c #FF2832",
"%	c #B01C37",
"&	c #3D3D3D",
"*	c #FFFFFF",
"=	c #C4E0EB",
"-	c #333333",
";	c #4D4D4D",
">	c #6E6E6E",
",	c #555555",
"'	c #9C9C9C",
")	c #BFBFBF",
"!	c #999999",
"~	c #633500",
"{	c #472300",
"]	c #A3B3C4",
"^	c #D5B571",
"/	c #FFF388",
"(	c #8A163D",
"_	c #007800",
":	c #005800",
"                                ",
"  ..+++++++ ....@     ##+++++.. ",
"  ........+ ...@$@ ###########. ",
" .........+ ..@$%@ .##########. ",
" .........+ &@*%*=@.########### ",
" .......... @*****=@....####### ",
" .......... @-=**=-@            ",
" &......... @;-**-;@+>>>> ##+   ",
" &........  @=*--*=@+++@@ ####  ",
" &........  ,@=**=@+++@'@ ##### ",
" &&&&&...    @=--=@@+@)'@ .#### ",
"            @%-%%-%$@@)'@ ...## ",
" +..   ##..@$$$$$%$%@@)'@       ",
" +...  ##@@@$$$$%%%@=@)'@###+   ",
" ++... .@)!)@$%%@@@@*@)'@#####+ ",
" ,++++ @!~{~!@@@=@=*]@)'@       ",
" ,,,++@){;{;{)@=@@@@]@)'@++++++ ",
"      @){~{~{)@*@=*]@^)'@.....+ ",
" #+ #.@){;{;{)@*@@@@@///^@....+ ",
" .# .# @!~{~!@@*@=*@%(@@^@....+ ",
"        @)!)@]=@=@@@(@*=@...... ",
" ..++++++@@@@******@%@@@....... ",
" .+++++++@(%@@@==@@@(@......... ",
" .+++++++@%%@=*@@*=@@.......... ",
" ,++++++++@%@*=@@=*@........... ",
" ,,,,,,++++@@@@++@*@........... ",
"            @%$@ @=@..........  ",
" ....+ #++++@@@++@@@&&&&        ",
" ..##+ ####@_:@##@:_@           ",
" .#### .##@_::@##@::_@++>>>>>>> ",
" ..### ...#@@@@.#@@@@,,+++++++> ",
"                                "};
