/* XPM */
static char *dummy[]={
"32 32 7 1",
". c None",
"# c #000000",
"c c #2d4d91",
"d c #3462a7",
"a c #686c88",
"b c #808aa8",
"e c #b01c37",
"................................",
"................................",
"................................",
"................................",
"................................",
"................................",
"................................",
"................................",
"................................",
"....####................####....",
"...#abba##............##abba#...",
"....####ba#..........#ab####....",
".....#cc##b#..#..#..#b##cc#.....",
"......#dca#a##a##a##a#acd#......",
"......#dac#ba#bbba#ab#cad#......",
".....#dbcdc#b#ebbe#b#cdcbd#.....",
".....#acdddb#a#aa#a#bdddca#.....",
"....#b###dda#ba##aa#add###b#....",
".....#...#ac#bbaaba#ca#...#.....",
".........#b#.#bbba#.#b#.........",
"..........#.#b#aa#b#.#..........",
".............#.##.#.............",
"................................",
"................................",
"................................",
"................................",
"................................",
"................................",
"................................",
"................................",
"................................",
"................................"};
