/* XPM */
static char * ene_xpm[] = {
"32 32 13 1",
" 	c #2E2E2E",
".	c #444444",
"+	c #5E5E5E",
"@	c #4C4C4C",
"#	c #3D3D3D",
"$	c #6E6E6E",
"%	c #555555",
"&	c #000000",
"*	c #686C88",
"=	c #808AA8",
"-	c #2D4D91",
";	c #3462A7",
">	c #B01C37",
"                                ",
"  ..+++++++ ....      @@+++++.. ",
"  ........+ .....  @@@@@@@@@@@. ",
" .........+ .....+ .@@@@@@@@@@. ",
" .........+ #..... .@@@@@@@@@@@ ",
" .......... ###... .....@@@@@@@ ",
" ..........                     ",
" #......... +$$ ++ ++$$$$ @@+   ",
" #........  %+$ @+ +++++$ @@@@  ",
" #..&&&&..  %%+ @. +++++&&&&@@@ ",
" ##&*==*&&         .++&&*==*&@@ ",
"    &&&&=*& ...+++  .&*=&&&&.@@ ",
" +.. &--&&=&#.&..&  &=&&--&     ",
" +... &;-*&*&&*&&*&&*&*-;&@@+   ",
" ++...&;*-&=*&===*&*=&-*;&@@@@+ ",
" %+++&;=-;-&=&>==>&=&-;-=;&     ",
" %%%+&*-;;;=&*&**&*&=;;;-*&++++ ",
"    &=&&&;;*&=*&&**&*;;&&&=&..+ ",
" @+ @& .@&*-&==**=*&-*&...&...+ ",
" .@ .@ ..&=&.&===*&.&=&.......+ ",
"          & &=&**&=&.&......... ",
" ..++++++++$$&.&& &............ ",
" .++++++++++++.... ............ ",
" .++++++++++++++.. ............ ",
" %++++++++++++++.. #........... ",
" %%%%%%+++++++++++ #........... ",
"                   #..........  ",
" ....+ @+++++ @++  #####        ",
" ..@@+ @@@@@+ @@@+              ",
" .@@@@ .@@@@@ .@@@  ++++$$$$$$$ ",
" ..@@@ ...@@@ ..@@   %%+++++++$ ",
"                                "};
