/* XPM */
static char *dummy[]={
"32 32 72 2",
"Qt c #2e2e2e",
".G c #381a29",
".w c #391a28",
".y c #391a29",
".a c #3a1a29",
".5 c #3b1a28",
".s c #3d1b28",
".U c #3d1b29",
".3 c #401b28",
".I c #401c29",
".z c #411c29",
".o c #421b28",
".0 c #441c28",
".R c #441c29",
".f c #451d29",
".k c #471c28",
"#e c #471d29",
".Y c #491d28",
".A c #491e29",
".O c #4b1e29",
".K c #4b1e2a",
".g c #4c1d28",
".8 c #4d1f2a",
"#c c #4e1f2a",
".W c #4f1e28",
".j c #50202a",
".b c #511e28",
".C c #51202a",
".L c #52202a",
".x c #541f28",
"#. c #54202a",
".E c #551f28",
".N c #55212b",
".t c #561f28",
"#a c #56212a",
".4 c #572028",
".p c #582028",
".D c #58212a",
".9 c #592029",
".1 c #592129",
".B c #5a2129",
".J c #5a222a",
".l c #5b2129",
".n c #5b232b",
".7 c #5c2129",
".Z c #5c2229",
".h c #5d222a",
".6 c #5e222a",
".F c #5e232a",
".Q c #5e242b",
".X c #5f222a",
".c c #60232a",
".V c #61232a",
".d c #62242b",
".u c #63242b",
"#f c #64242b",
".r c #64252c",
".S c #65252b",
".q c #66252b",
".2 c #67252b",
".P c #68252b",
".m c #68262b",
".T c #68262c",
"#d c #69262b",
".M c #6a262c",
".i c #6b272c",
"#b c #6c272c",
".v c #6d272c",
".e c #6e272c",
"## c #6f282c",
".H c #70282c",
".# c #72292d",
"QtQtQtQtQtQtQtQtQtQtQtQtQtQtQtQtQtQtQtQtQtQtQtQtQtQtQtQtQtQtQtQt",
".#.a.b.c.d.d.e.f.g.h.d.d.i.j.k.l.d.d.m.n.o.p.d.q.r.s.t.d.u.v.w.x",
".d.y.b.x.c.d.d.z.g.x.h.d.d.A.k.x.B.d.d.C.o.x.p.d.D.s.x.E.d.F.w.x",
".G.G.G.G.G.G.G.G.G.G.G.G.G.G.G.G.G.G.G.G.G.G.G.G.G.G.G.G.G.G.G.G",
".d.d.H.#.I.J.d.d.v.#.K.L.d.d.M.#.N.O.d.P.#.Q.R.d.S.#.T.U.d.u.#.#",
".x.V.d.H.I.W.X.d.d.v.K.Y.Z.d.d.M.N.0.1.d.2.Q.3.4.d.S.T.5.E.d.d.#",
".x.x.c.d.U.W.x.6.d.d.f.Y.x.7.d.d.8.0.x.9.d#..3.x.4.d.J.5.x.E.d.d",
".G.G.G.G.G.G.G.G.G.G.G.G.G.G.G.G.G.G.G.G.G.G.G.G.G.G.G.G.G.G.G.G",
".#.a.F.d.d##.#.f#a.d.d#b.#.j#c.d.d#d.#.n#e.d.q.#.r.I.d#f.#.v.y.d",
".#.a.b.c.d.d.e.f.g.h.d.d.i.j.k.l.d.d.m.n.o.p.d.q.r.s.t.d.u.v.w.x",
".d.y.b.x.c.d.d.z.g.x.h.d.d.A.k.x.B.d.d.C.o.x.p.d.D.s.x.E.d.F.w.x",
".G.G.G.G.G.G.G.G.G.G.G.G.G.G.G.G.G.G.G.G.G.G.G.G.G.G.G.G.G.G.G.G",
".d.d.H.#.I.J.d.d.v.#.K.L.d.d.M.#.N.O.d.P.#.Q.R.d.S.#.T.U.d.u.#.#",
".x.V.d.H.I.W.X.d.d.v.K.Y.Z.d.d.M.N.0.1.d.2.Q.3.4.d.S.T.5.E.d.d.#",
".x.x.c.d.U.W.x.6.d.d.f.Y.x.7.d.d.8.0.x.9.d#..3.x.4.d.J.5.x.E.d.d",
".G.G.G.G.G.G.G.G.G.G.G.G.G.G.G.G.G.G.G.G.G.G.G.G.G.G.G.G.G.G.G.G",
".#.a.F.d.d##.#.f#a.d.d#b.#.j#c.d.d#d.#.n#e.d.q.#.r.I.d#f.#.v.y.d",
".#.a.b.c.d.d.e.f.g.h.d.d.i.j.k.l.d.d.m.n.o.p.d.q.r.s.t.d.u.v.w.x",
".d.y.b.x.c.d.d.z.g.x.h.d.d.A.k.x.B.d.d.C.o.x.p.d.D.s.x.E.d.F.w.x",
".G.G.G.G.G.G.G.G.G.G.G.G.G.G.G.G.G.G.G.G.G.G.G.G.G.G.G.G.G.G.G.G",
".d.d.H.#.I.J.d.d.v.#.K.L.d.d.M.#.N.O.d.P.#.Q.R.d.S.#.T.U.d.u.#.#",
".x.V.d.H.I.W.X.d.d.v.K.Y.Z.d.d.M.N.0.1.d.2.Q.3.4.d.S.T.5.E.d.d.#",
".x.x.c.d.U.W.x.6.d.d.f.Y.x.7.d.d.8.0.x.9.d#..3.x.4.d.J.5.x.E.d.d",
".G.G.G.G.G.G.G.G.G.G.G.G.G.G.G.G.G.G.G.G.G.G.G.G.G.G.G.G.G.G.G.G",
".#.a.F.d.d##.#.f#a.d.d#b.#.j#c.d.d#d.#.n#e.d.q.#.r.I.d#f.#.v.y.d",
".#.a.b.c.d.d.e.f.g.h.d.d.i.j.k.l.d.d.m.n.o.p.d.q.r.s.t.d.u.v.w.x",
".d.y.b.x.c.d.d.z.g.x.h.d.d.A.k.x.B.d.d.C.o.x.p.d.D.s.x.E.d.F.w.x",
".G.G.G.G.G.G.G.G.G.G.G.G.G.G.G.G.G.G.G.G.G.G.G.G.G.G.G.G.G.G.G.G",
".d.d.H.#.I.J.d.d.v.#.K.L.d.d.M.#.N.O.d.P.#.Q.R.d.S.#.T.U.d.u.#.#",
".x.V.d.H.I.W.X.d.d.v.K.Y.Z.d.d.M.N.0.1.d.2.Q.3.4.d.S.T.5.E.d.d.#",
".x.x.c.d.U.W.x.6.d.d.f.Y.x.7.d.d.8.0.x.9.d#..3.x.4.d.J.5.x.E.d.d",
"QtQtQtQtQtQtQtQtQtQtQtQtQtQtQtQtQtQtQtQtQtQtQtQtQtQtQtQtQtQtQtQt"};
