/* XPM */
static char *dummy[]={
"32 32 14 1",
". c #2e2e2e",
"c c #3d3d3d",
"b c #444444",
"h c #482a20",
"# c #4c4c4c",
"j c #4f2d25",
"k c #555555",
"g c #573327",
"i c #5a3428",
"a c #5e5e5e",
"l c #635c5a",
"e c #6e6e6e",
"f c #a47bab",
"d c #b385b5",
"................................",
"#aaaaaa.bbaaaaaaaa.bbbaaa.######",
"######a.bbbbbbbbba.bbbbba.######",
"######a.bbbbbbbbba.bbbbba.b#####",
"#######.bbbbbbbbba.cbbbbb.b#####",
"#######.bbbbbbbbbb.cccbbb.bbbbb#",
"........bbbdddddddddd...........",
"aeeeeee.cddffffffffffddaa.aaaaaa",
"aaaaaae.dffgggghiggggffda.aaaaaa",
"aaaaaaedfiiiiiihiiiiiiifd.aaaaaa",
"aaaaaaadfjjjjjjjjjjjjjjfd.kaaaaa",
"kkkkaadfggggggghigggggggfdkkkkaa",
".....dfgggggggghiggggggggfd.....",
"####adfgggggggghiggggggggfd#####",
"#####dfgggggggghiggggggggfdbbb##",
".....dfiiiiiiiihiiiiiiiiifd.....",
"aaaaadfjjjjjjjjjjjjjjjjjjfdbbbaa",
"bbbbbdfgggggggghiggggggggfdbbbbb",
"bbbbbdfgggggggghiggggggggfdbbbbb",
"bbbbbdfgggggggghiggggggggfdbbbbb",
"bbbbbdfgggggggghiggggggggfdbbbbb",
"bbbbbdfiiiiiiiihiiiiiiiiifdbbbbb",
"bbbbbdfjjjjjjjjjjjjjjjjjjfdbbbbb",
"bbbbbdfgggggggghiggggggggfdbbbbb",
"bbbbbdfgggggllghigllgggggfdbbbbb",
"bbbbbdfgggglggghiggglggggfdbbbbb",
"bbbbbdfgggggggghiggggggggfdbbbbb",
"cccccdfiiiiiiiihiiiiiiiiifdccccc",
".....dfjjjjjjjjjjjjjjjjjjfd.....",
"aeeeedfgggggggghiggggggggfdaaaaa",
"aaaaadfgggggggghiggggggggfdkkkaa",
".....dfgggggggghiggggggggfd....."};
