/* XPM */
static char *dummy[]={
"32 32 7 1",
". c #2e2e2e",
"c c #3d3d3d",
"# c #444444",
"b c #4c4c4c",
"e c #555555",
"a c #5e5e5e",
"d c #6e6e6e",
"................................",
"..##aaaaaaa.####......bbaaaaa##.",
"..########a.#####..bbbbbbbbbbb#.",
".#########a.#####a.#bbbbbbbbbb#.",
".#########a.c#####.#bbbbbbbbbbb.",
".##########.ccc###.#####bbbbbbb.",
".##########.....................",
".c#########.add.aa.aadddd.bba...",
".c########..ead.ba.aaaaad.bbbb..",
".c########..eea.b#.aaaaaa.bbbbb.",
".ccccc###..........#aaaaa.#bbbb.",
"............###aaa..##eaa.###bb.",
".a##...bb##.c#####..............",
".a###..bbb#.ccc##..#bbbbbbbba...",
".aa###.#bb#........####bbbbbbba.",
".eaaaa.###b.bbba##..............",
".eeeaa......bbbbb#....#aaaaaaaa.",
".......##aa.bbbbba..##########a.",
".ba.b#.#bba.#bbbbb.###########a.",
".#b.#b.##b#.#####b.###########a.",
"...................############.",
".##aaaaaaaadd####..############.",
".#aaaaaaaaaaaa####.############.",
".#aaaaaaaaaaaaaa##.############.",
".eaaaaaaaaaaaaaa##.c###########.",
".eeeeeeaaaaaaaaaaa.c###########.",
"...................c##########..",
".####a.baaaaa.baa..ccccc........",
".##bba.bbbbba.bbba..............",
".#bbbb.#bbbbb.#bbb..aaaaddddddd.",
".##bbb.###bbb.##bb...eeaaaaaaad.",
"................................"};
